<svg width="40" height="40" viewBox="0 0 40 40" fill="none" xmlns="http://www.w3.org/2000/svg">
<path d="M0.839209 0.839209C1.10455 0.573191 1.41978 0.362134 1.76681 0.218129C2.11385 0.0741232 2.48589 0 2.86163 0C3.23736 0 3.6094 0.0741232 3.95644 0.218129C4.30348 0.362134 4.6187 0.573191 4.88404 0.839209L20.0007 15.9616L35.1175 0.839209C35.383 0.573621 35.6983 0.362945 36.0453 0.21921C36.3924 0.0754752 36.7643 0.00149558 37.1399 0.00149558C37.5155 0.00149558 37.8874 0.0754752 38.2344 0.21921C38.5814 0.362945 38.8967 0.573621 39.1623 0.839209C39.4279 1.1048 39.6386 1.42009 39.7823 1.7671C39.926 2.11411 40 2.48603 40 2.86163C40 3.23722 39.926 3.60914 39.7823 3.95615C39.6386 4.30316 39.4279 4.61846 39.1623 4.88404L24.0399 20.0007L39.1623 35.1175C39.4279 35.383 39.6386 35.6983 39.7823 36.0453C39.926 36.3924 40 36.7643 40 37.1399C40 37.5155 39.926 37.8874 39.7823 38.2344C39.6386 38.5814 39.4279 38.8967 39.1623 39.1623C38.8967 39.4279 38.5814 39.6386 38.2344 39.7823C37.8874 39.926 37.5155 40 37.1399 40C36.7643 40 36.3924 39.926 36.0453 39.7823C35.6983 39.6386 35.383 39.4279 35.1175 39.1623L20.0007 24.0399L4.88404 39.1623C4.61846 39.4279 4.30316 39.6386 3.95615 39.7823C3.60914 39.926 3.23722 40 2.86163 40C2.48603 40 2.11411 39.926 1.7671 39.7823C1.42009 39.6386 1.1048 39.4279 0.839209 39.1623C0.573621 38.8967 0.362945 38.5814 0.21921 38.2344C0.0754752 37.8874 0.00149558 37.5155 0.00149558 37.1399C0.00149558 36.7643 0.0754752 36.3924 0.21921 36.0453C0.362945 35.6983 0.573621 35.383 0.839209 35.1175L15.9616 20.0007L0.839209 4.88404C0.573191 4.6187 0.362134 4.30348 0.218129 3.95644C0.0741232 3.6094 0 3.23736 0 2.86163C0 2.48589 0.0741232 2.11385 0.218129 1.76681C0.362134 1.41978 0.573191 1.10455 0.839209 0.839209Z" fill="#4448B2"/>
</svg>
