<svg width="60" height="60" viewBox="0 0 60 60" fill="none" xmlns="http://www.w3.org/2000/svg">
<path fill-rule="evenodd" clip-rule="evenodd" d="M26.6115 0.104104C17.5964 1.19277 9.71975 6.05929 4.78101 13.592C2.48834 17.0887 1.01726 20.8911 0.245574 25.315C-0.0818579 27.1924 -0.0818579 32.7897 0.245574 34.6671C1.20311 40.1559 3.24488 44.7145 6.61732 48.8929C11.6298 55.1032 18.9962 59.0709 27.0611 59.904C28.9062 60.0947 32.8037 59.9886 34.6458 59.6976C49.2173 57.3955 60 44.7619 60 29.9911C60 21.6828 56.7906 14.151 50.7643 8.31697C49.1319 6.73659 48.1695 5.97012 46.2363 4.71061C42.8831 2.52617 39.0874 1.06131 34.9092 0.339224C33.0844 0.0237546 28.3799 -0.109546 26.6115 0.104104ZM34.6458 2.12324C38.6154 2.85481 42.2668 4.28687 45.3553 6.32365C47.1647 7.51677 49.1998 9.15049 49.1998 9.40998C49.1998 9.46491 46.4225 12.2866 43.0282 15.6806L36.8568 21.8516L36.2122 21.3558C35.0148 20.4349 33.3152 19.7636 31.1884 19.3714L30.892 19.3168V15.8972V12.4777L31.4023 12.2173C32.4221 11.697 33.0011 10.7028 32.9965 9.47992C32.9928 8.51139 32.6663 7.78509 31.9646 7.18444C30.4017 5.84656 28.146 6.31588 27.1677 8.18248C26.7835 8.91537 26.7843 10.1035 27.1694 10.8384C27.4775 11.4262 28.2353 12.1567 28.7334 12.3461L29.0481 12.4657V15.8878V19.3098L28.5542 19.3928C26.7771 19.6912 25.0599 20.3865 23.7144 21.352L23.0565 21.8242L21.4873 20.2549L19.9179 18.6856L20.2234 17.9828C20.4481 17.466 20.5317 17.0176 20.5397 16.2873C20.5494 15.4189 20.4964 15.1843 20.1181 14.4159C19.6403 13.4452 18.9197 12.7321 17.9844 12.3041C17.1236 11.9103 15.3816 11.9063 14.5368 12.2964C13.6649 12.6988 12.7824 13.5622 12.3565 14.4294C12.0417 15.0706 11.9927 15.3263 11.9993 16.2922C12.0053 17.1733 12.07 17.542 12.3031 18.0225C12.7766 18.9991 13.436 19.6658 14.3945 20.1378C15.1571 20.5132 15.4017 20.5689 16.2659 20.5635C17.0124 20.5589 17.4351 20.4802 17.9627 20.2479L18.6654 19.9382L20.241 21.514L21.8165 23.0896L21.4304 23.5757C20.5293 24.7095 19.6719 26.7929 19.3725 28.5751L19.2896 29.069H15.8679H12.446L12.3264 28.7544C12.137 28.2562 11.4066 27.4983 10.8187 27.1902C10.0839 26.805 8.89591 26.8042 8.16307 27.1885C6.2966 28.1669 5.82732 30.4227 7.1651 31.9857C7.7657 32.6875 8.49195 33.0141 9.46042 33.0177C10.6832 33.0223 11.6774 32.4433 12.1976 31.4234L12.458 30.9131H15.8772H19.2965L19.3512 31.2095C19.7433 33.3366 20.4146 35.0362 21.3355 36.2339L21.8314 36.8787L15.6338 43.0767L9.43618 49.2747L9.14813 49.0179C8.63683 48.562 7.17933 46.6933 6.32782 45.4019C4.30422 42.3327 2.89348 38.78 2.14365 34.8647C1.89156 33.5482 1.85376 32.9104 1.85494 29.9911C1.85652 26.3497 1.9449 25.5907 2.7129 22.6261C5.23726 12.8817 13.3123 4.99592 23.2528 2.56766C25.7764 1.95121 27.214 1.80909 30.4311 1.85848C32.5063 1.89023 33.8337 1.9736 34.6458 2.12324ZM30.5503 8.40733C31.0514 8.6356 31.34 9.34452 31.1573 9.898C30.7598 11.1026 28.9436 11.0167 28.7121 9.78235C28.6204 9.29367 28.8953 8.62282 29.2786 8.39956C29.5869 8.22002 30.1466 8.22332 30.5503 8.40733ZM51.1429 11.3064C53.2438 13.6319 55.2475 16.9745 56.4305 20.1279C58.3586 25.2673 58.6959 31.3964 57.3504 36.8405C54.6851 47.624 45.8984 55.81 34.8433 57.8087C32.6853 58.1989 28.508 58.286 26.348 57.9856C21.2374 57.2753 16.7615 55.4146 12.7409 52.3292C12.039 51.7905 11.2889 51.1656 11.074 50.9405L10.6832 50.5311L16.8695 44.3443L23.0558 38.1574L23.7141 38.6298C25.0271 39.5719 26.473 40.1783 28.0603 40.4527L28.9822 40.612L29.0152 43.3035L29.048 45.995L28.3186 46.31C27.8665 46.5051 27.3943 46.8461 27.0772 47.2063C25.2667 49.2633 26.2132 52.5954 28.8287 53.3722C30.3046 53.8105 31.5104 53.4985 32.617 52.3918C33.224 51.7848 33.4201 51.4799 33.5988 50.8653C34.1636 48.9221 33.2593 46.966 31.4546 46.2269L30.8885 45.995L30.9233 43.3035L30.9579 40.612L31.8799 40.45C33.4986 40.1658 34.6032 39.7046 36.0175 38.7228L36.8625 38.1361L39.2917 40.5656C41.6262 42.9003 41.7143 43.0074 41.5499 43.3095C41.4559 43.4826 41.3779 44.0182 41.3767 44.5C41.375 45.2442 41.4336 45.4713 41.7671 46.0107C42.3536 46.9595 43.0875 47.4197 44.1186 47.4853C45.1631 47.5518 45.7879 47.3531 46.4716 46.7365C47.1573 46.1183 47.4809 45.3951 47.4846 44.4732C47.4936 42.2201 45.25 40.7538 43.1411 41.6345C43.0045 41.6915 42.2009 40.9735 40.5367 39.3072L38.1298 36.8974L38.8426 35.814C39.6661 34.5622 40.1982 33.2264 40.4143 31.8681L40.5663 30.9131H43.6282H46.6899L46.9749 31.5755C47.3396 32.4235 48.3292 33.3241 49.2218 33.6206C51.1431 34.2589 53.3929 33.1578 54.019 31.2727C54.3383 30.3112 54.2245 28.8896 53.7654 28.1062C53.3019 27.3151 52.4738 26.6251 51.6662 26.3568C50.8206 26.076 49.4719 26.1582 48.7328 26.5355C48.0537 26.8824 47.1543 27.8552 46.8807 28.539L46.6687 29.069H43.6175H40.5663L40.4109 28.0926C40.1971 26.7488 39.5774 25.2129 38.7845 24.062L38.1183 23.0946L44.2841 16.9274C47.6753 13.5353 50.4947 10.76 50.5497 10.76C50.6044 10.76 50.8714 11.0058 51.1429 11.3064ZM17.6218 14.1803C19.2686 15.3088 19.0713 17.7269 17.2654 18.5473C16.5911 18.8536 15.9548 18.8543 15.2832 18.5492C12.727 17.3879 13.6312 13.6435 16.4246 13.8226C16.9318 13.8551 17.3139 13.9693 17.6218 14.1803ZM31.863 21.3622C32.7996 21.5606 34.6682 22.4053 35.2302 22.8843L35.5512 23.1578L29.3318 29.3736L23.1126 35.5892L22.8513 35.2599C22.3986 34.6894 21.5506 32.8576 21.3286 31.9703C21.0279 30.7688 21.1281 28.3999 21.5294 27.225C22.5442 24.2535 25.1902 21.9006 28.192 21.3001C29.0596 21.1266 30.8976 21.1577 31.863 21.3622ZM37.308 25.0848C39.0643 27.6802 39.2617 31.0007 37.8346 33.9427C37.0592 35.5412 35.4919 37.1097 33.8995 37.8804C32.0238 38.7885 30.0586 39.0369 28.0603 38.6189C27.1476 38.4279 25.3374 37.615 24.7017 37.1107L24.3724 36.8495L30.5622 30.6542C33.9667 27.2467 36.782 24.459 36.8185 24.4591C36.855 24.4592 37.0753 24.7407 37.308 25.0848ZM51.5983 28.351C52.1322 28.7486 52.4115 29.3225 52.4115 30.0219C52.4115 32.0026 49.6988 32.6936 48.708 30.9653C48.17 30.0268 48.4327 28.9277 49.3449 28.2999C49.7141 28.046 49.9203 28.0009 50.5228 28.0431C50.975 28.0746 51.3847 28.1919 51.5983 28.351ZM10.0627 28.8616C11.0155 29.3543 10.9096 30.8382 9.89783 31.1721C9.53865 31.2906 9.3511 31.2817 8.98415 31.1283C8.45362 30.9067 8.23788 30.5779 8.23788 29.9911C8.23788 29.4509 8.42583 29.1186 8.8668 28.8792C9.32383 28.6312 9.60912 28.627 10.0627 28.8616ZM45.3198 43.5634C45.961 44.1659 45.748 45.262 44.9229 45.6069C44.3318 45.8538 43.8887 45.7439 43.47 45.2461C42.4496 44.0333 44.1621 42.4756 45.3198 43.5634ZM30.992 48.036C31.6769 48.4536 31.9694 49.0336 31.9088 49.8532C31.849 50.6625 31.5378 51.16 30.8827 51.4941C29.9385 51.9757 28.8003 51.6622 28.2572 50.7711C27.8894 50.1679 27.9002 49.114 28.279 48.6323C28.9544 47.7738 30.136 47.514 30.992 48.036Z" fill="white"/>
</svg>
